<svg width="591" height="157" viewBox="0 0 591 157" fill="none" xmlns="http://www.w3.org/2000/svg">
<path d="M21.3502 139.22C10.3502 131.29 4.3802 119.65 3.4502 104.32H50.6502C51.3202 112.45 54.9202 116.52 61.4502 116.52C63.8502 116.52 65.8802 115.95 67.5502 114.82C69.2202 113.69 70.0502 111.92 70.0502 109.52C70.0502 106.19 68.2502 103.49 64.6502 101.42C61.0502 99.35 55.4502 96.99 47.8502 94.32C38.7802 91.12 31.2802 87.99 25.3502 84.92C19.4202 81.85 14.3202 77.39 10.0502 71.52C5.7802 65.65 3.7202 58.12 3.8502 48.92C3.8502 39.72 6.2202 31.89 10.9502 25.42C15.6802 18.95 22.1502 14.05 30.3502 10.72C38.5502 7.38997 47.7802 5.71997 58.0502 5.71997C75.3802 5.71997 89.1502 9.71997 99.3502 17.72C109.55 25.72 114.92 36.99 115.45 51.52H67.6502C67.5202 47.52 66.5202 44.65 64.6502 42.92C62.7802 41.19 60.5202 40.32 57.8502 40.32C55.9802 40.32 54.4502 40.95 53.2502 42.22C52.0502 43.49 51.4502 45.25 51.4502 47.52C51.4502 50.72 53.2202 53.35 56.7502 55.42C60.2802 57.49 65.9202 59.99 73.6502 62.92C82.5802 66.25 89.9502 69.45 95.7502 72.52C101.55 75.59 106.58 79.85 110.85 85.32C115.12 90.79 117.25 97.65 117.25 105.92C117.25 114.19 115.12 122.35 110.85 129.22C106.58 136.09 100.38 141.45 92.2502 145.32C84.1202 149.19 74.4502 151.12 63.2502 151.12C46.3202 151.12 32.3502 147.15 21.3502 139.22Z" fill="#1C162E"/>
<path d="M581.11 81.02C576.98 88.29 570.88 94.06 562.81 98.32C554.74 102.59 544.98 104.72 533.51 104.72H515.91V149.72H471.51V8.12H533.51C550.84 8.12 564.14 12.52 573.41 21.32C582.68 30.12 587.31 41.92 587.31 56.72C587.31 65.65 585.24 73.75 581.11 81.02ZM542.31 56.72C542.31 48.05 537.71 43.72 528.51 43.72H515.91V69.72H528.51C537.71 69.72 542.31 65.39 542.31 56.72Z" fill="#1C162E"/>
<path d="M306.69 149.93C308.63 149.93 310.55 149.85 312.44 149.71H300.88C302.79 149.85 304.73 149.93 306.69 149.93Z" fill="#1C162E"/>
<path d="M306.691 7.89996C304.721 7.89996 302.771 7.97996 300.851 8.11996H312.521C310.601 7.97996 308.661 7.89996 306.691 7.89996Z" fill="#1C162E"/>
<path d="M379.29 8.11993H312.52C323.29 8.89993 333.26 11.8499 342.44 16.9899C353.25 23.0499 361.81 31.4799 368.13 42.2899C374.45 53.0999 377.6 65.2799 377.6 78.8199C377.6 92.3599 374.44 104.54 368.13 115.35C361.81 126.16 353.21 134.63 342.34 140.75C333.1 145.95 323.13 148.93 312.44 149.72H379.29V8.11993Z" fill="#1C162E"/>
<path d="M244.95 115.35C238.57 104.54 235.38 92.3599 235.38 78.8199C235.38 65.2799 238.57 53.0999 244.95 42.2899C251.33 31.4799 259.96 23.0499 270.84 16.9899C280.07 11.8499 290.07 8.89993 300.85 8.11993H233.69V149.72H300.88C290.09 148.94 280.07 145.96 270.84 140.75C259.96 134.63 251.33 126.17 244.95 115.35Z" fill="#1C162E"/>
<path d="M306.691 47.95C297.961 47.95 291.261 50.72 286.571 56.25C281.881 61.79 279.541 69.3099 279.541 78.82C279.541 88.3299 281.881 95.66 286.571 101.19C291.261 106.73 297.971 109.49 306.691 109.49C315.411 109.49 321.931 106.72 326.621 101.19C331.311 95.66 333.651 88.2 333.651 78.82C333.651 69.4399 331.311 61.79 326.621 56.25C321.931 50.72 315.291 47.95 306.691 47.95Z" fill="#1C162E"/>
<path d="M203.47 8.12V59.12H161.27V8.12H116.87V149.72H161.27V94.52H203.47V149.72H234.99V8.12H203.47Z" fill="#1C162E"/>
<path d="M459.61 21.32C450.34 12.52 437.04 8.12 419.71 8.12H379.29V149.72H402.11V104.72H419.71C431.18 104.72 440.94 102.59 449.01 98.32C457.08 94.05 463.18 88.29 467.31 81.02C471.44 73.75 473.51 65.65 473.51 56.72C473.51 41.92 468.88 30.12 459.61 21.32ZM414.71 69.72H402.11V43.72H414.71C423.91 43.72 428.51 48.05 428.51 56.72C428.51 65.39 423.91 69.72 414.71 69.72Z" fill="#1C162E"/>
<path d="M306.69 47.95C297.96 47.95 291.26 50.72 286.57 56.25C281.88 61.79 279.54 69.31 279.54 78.82C279.54 88.33 281.88 95.66 286.57 101.19C291.26 106.73 297.97 109.49 306.69 109.49C315.41 109.49 321.93 106.72 326.62 101.19C331.31 95.66 333.65 88.2 333.65 78.82C333.65 69.44 331.31 61.79 326.62 56.25C321.93 50.72 315.29 47.95 306.69 47.95Z" fill="#B30059"/>
</svg>
